{"title":"Molly.Moon.and.the.Incredible.Book.of.Hypnotism.2015.720p.BluRay","uid":12922384,"size":1269581211,"categoryP":"video","categoryS":"hd___movies","magnet":"?xt=urn:btih:a4d6cf01aaf0316c3277a4a4d2c0c66a1785dfe7&amp;dn=Molly.Moon.and.the.Incredible.Book.of.Hypnotism.2015.720p.BluRay&amp;tr=udp%3A%2F%2Ftracker.leechers-paradise.org%3A6969&amp;tr=udp%3A%2F%2Fzer0day.ch%3A1337&amp;tr=udp%3A%2F%2Fopen.demonii.com%3A1337&amp;tr=udp%3A%2F%2Ftracker.coppersurfer.tk%3A6969&amp;tr=udp%3A%2F%2Fexodus.desync.com%3A6969","seeders":0,"leechers":1,"uploader":"TheRival","files":4,"time":1449428950,"description":"Screens: \nhttp://extraimago.com/image/GhI \nhttp://extraimago.com/image/Ghd \nhttp://extraimago.com/image/Ghh \nhttp://extraimago.com/image/Ghb \nhttp://extraimago.com/image/Gh3\r\n\r\nVideo\r\nID                                       : 1\r\nFormat                                   : AVC\r\nFormat/Info                              : Advanced Video Codec\r\nFormat profile                           :   \r\nFormat settings, CABAC                   : Yes\r\nFormat settings, ReFrames                : 4 frames\r\nCodec ID                                 : avc1\r\nCodec ID/Info                            : Advanced Video Coding\r\nDuration                                 : 1h 37mn\r\nBit rate                                 : 1 500 Kbps\r\nWidth                                    : 1 280 pixels\r\nHeight                                   : 694 pixels\r\nDisplay aspect ratio                     : 1.85:1\r\nFrame rate mode                          : Constant\r\nFrame rate                               : 24.000 fps\r\nColor space                              : YUV\r\nChroma subsampling                       : 4:2:0\r\nBit depth                                : 8 bits\r\nScan type                                : Progressive\r\nBits/(Pixel*Frame)                       : 0.070\r\nStream size                              : 1.02 GiB (87%)\r\nWriting library                          : x264 core 148 r2597M e86f3a1\r\nEncoding settings                        : cabac=1 / ref=4 / deblock=1:-1:-1 / analyse=0x3:0x113 / me=umh / subme=9 / psy=1 / psy_rd=1.00:0.15 / mixed_ref=1 / me_range=24 / chroma_me=1 / trellis=2 / 8x8dct=1 / cqm=0 / deadzone=21,11 / fast_pskip=1 / chroma_qp_offset=-3 / threads=32 / lookahead_threads=4 / sliced_threads=0 / nr=0 / decimate=1 / interlaced=0 / bluray_compat=0 / constrained_intra=0 / bframes=3 / b_pyramid=2 / b_adapt=2 / b_bias=0 / direct=3 / weightb=1 / open_gop=0 / weightp=2 / keyint=250 / keyint_min=25 / scenecut=40 / intra_refresh=0 / rc_lookahead=50 / rc=2pass / mbtree=1 / bitrate=1500 / ratetol=1.0 / qcomp=0.60 / qpmin=0 / qpmax=69 / qpstep=4 / cplxblur=20.0 / qblur=0.5 / vbv_maxrate=31250 / vbv_bufsize=31250 / nal_hrd=none / filler=0 / ip_ratio=1.40 / aq=3:1.00\r\nEncoded date                             : UTC 2015-12-06 15:00:18\r\nTagged date                              : UTC 2015-12-06 15:00:18\r\n\r\nAudio\r\nID                                       : 2\r\nFormat                                   : AAC\r\nFormat/Info                              : Advanced Audio Codec\r\nFormat profile                           : LC\r\nCodec ID                                 : 40\r\nDuration                                 : 1h 37mn\r\nBit rate mode                            : Constant\r\nBit rate                                 : 224 Kbps\r\nChannel(s)                               : 2 channels\r\nChannel(s)_Original                      : 6 channels\r\nChannel positions                        : Front: L C R, Side: L R, LFE\r\nSampling rate                            : 48.0 KHz\r\nCompression mode                         : Lossy\r\nStream size                              : 157 MiB (13%)\r\nLanguage                                 : English\r\nEncoded date                             : UTC 2015-12-06 15:00:18\r\nTagged date                              : UTC 2015-12-06 15:00:18","torrent":{"xt":"urn:btih:a4d6cf01aaf0316c3277a4a4d2c0c66a1785dfe7","amp;dn":"Molly.Moon.and.the.Incredible.Book.of.Hypnotism.2015.720p.BluRay","amp;tr":["udp%3A%2F%2Ftracker.leechers-paradise.org%3A6969","udp%3A%2F%2Fzer0day.ch%3A1337","udp%3A%2F%2Fopen.demonii.com%3A1337","udp%3A%2F%2Ftracker.coppersurfer.tk%3A6969","udp%3A%2F%2Fexodus.desync.com%3A6969"],"infoHash":"a4d6cf01aaf0316c3277a4a4d2c0c66a1785dfe7","infoHashBuffer":{"type":"Buffer","data":[164,214,207,1,170,240,49,108,50,119,164,164,210,192,198,106,23,133,223,231]},"announce":[],"urlList":[]}}